<svg version="1.1" xmlns="http://www.w3.org/2000/svg" viewBox="0 0 32 32" style="enable-background:new 0 0 32 32"><path d="M31.94 11.42c.33-2.55-.74-4.07-1.7-4.9C29.07 5.51 27.47 5 25.47 5c-.16 0-.33 0-.5.01l-22.25.87L0 27l8.05-.32.9-6.99 4.86-.19-.9 6.99 10.26-.4c2.2-.08 4.04-.71 5.47-1.84 1.51-1.2 2.4-2.8 2.65-4.74.19-1.47-.1-2.79-.87-3.94-.08-.12-.17-.24-.26-.36.06-.07.13-.13.19-.2.87-.98 1.41-2.19 1.59-3.59z" style="fill:#4a4d51"/><path class="st1" d="m15.59 7.28-.43 3.37-7 .27-.47 3.64 5.24-.21-.42 3.27-5.24.21-.9 6.99-4.19.16L4.4 7.72l11.19-.44zM28.84 16.62c.5.76.69 1.63.56 2.64-.19 1.44-.84 2.61-1.95 3.49-1.11.89-2.57 1.36-4.36 1.43l-8.01.31 2.23-17.28 7.74-.3c1.75-.07 3.06.28 3.95 1.05.88.77 1.24 1.84 1.06 3.22-.13 1.02-.51 1.87-1.12 2.57-.62.69-1.38 1.19-2.3 1.49.96.16 1.69.63 2.2 1.38zm-4.36 3.65c.42-.33.68-.81.75-1.41.08-.61-.06-1.08-.42-1.4-.36-.33-.88-.48-1.59-.45l-3.04.12-.49 3.82 3.09-.12c.71-.04 1.28-.22 1.7-.56zm-3.89-6.22 2.74-.11c.69-.03 1.23-.2 1.64-.52.41-.32.65-.77.72-1.36.08-.59-.05-1.03-.38-1.33-.33-.3-.83-.43-1.52-.41l-2.74.11-.46 3.62z" style="fill:#fff"/></svg>